#N canvas 0 94 1920 986 12;
#X obj 288 863 dac~;
#X obj 211 36 loadbang;
#X obj 288 777 +~ 1;
#X obj 288 802 tabread4~ waveform;
#X obj 506 570 line~;
#X obj 419 441 del 500;
#X obj 532 352 t b b b;
#X msg 419 466 55 1000;
#X obj 505 595 wrap~;
#X obj 108 43 bng 15 250 50 0 empty empty empty 17 7 0 10 -262144 -1
-1;
#X obj 289 83 t b b;
#X obj 531 322 metro 1000;
#X msg 511 430 100 500;
#X obj 511 403 del 250;
#X msg 618 442 44 500;
#X msg 383 117 \; waveform sinesum 515 0.9;
#X obj 288 753 *~ 512;
#X obj 123 536 phasor~ 110;
#X obj 285 37 table waveform 515;
#X msg 363 69 \; waveform read waveform.txt;
#X msg 209 220 \; waveform sinesum 515 0.9 -0.125 0.3 0 0.2 0 0.1 0
0.05 0 0.025 -0.0125 -0.0125 0.0125 -0.0125;
#X obj 447 25 loadbang;
#X obj 145 454 osc~ 110;
#X obj 580 284 tgl 15 0 empty empty empty 17 7 0 10 -262144 -1 -1 0
1;
#X obj 290 673 line~;
#X obj 289 699 wrap~;
#X msg 290 647 0 \, 110 1000;
#X obj 292 603 bng 15 250 50 0 empty empty empty 17 7 0 10 -262144
-1 -1;
#X obj 289 724 +~;
#X floatatom 938 108 5 0 0 0 - - -;
#X obj 938 132 mtof;
#X obj 920 278 osc~;
#X obj 918 442 dac~;
#X floatatom 938 157 0 0 0 0 - - -;
#X obj 920 370 *~;
#X msg 1020 210 0 100;
#X obj 1020 268 line~;
#X msg 1046 237 1 100;
#X floatatom 845 111 5 0 0 0 - - -;
#X obj 845 135 mtof;
#X obj 848 277 osc~;
#X floatatom 845 160 0 0 0 0 - - -;
#X obj 848 302 +~;
#X connect 1 0 10 0;
#X connect 2 0 3 0;
#X connect 4 0 8 0;
#X connect 5 0 7 0;
#X connect 6 0 5 0;
#X connect 6 1 13 0;
#X connect 6 2 14 0;
#X connect 7 0 4 0;
#X connect 9 0 10 0;
#X connect 11 0 6 0;
#X connect 12 0 4 0;
#X connect 13 0 12 0;
#X connect 14 0 4 0;
#X connect 16 0 2 0;
#X connect 21 0 19 0;
#X connect 23 0 11 0;
#X connect 24 0 25 0;
#X connect 25 0 28 0;
#X connect 26 0 24 0;
#X connect 27 0 26 0;
#X connect 28 0 16 0;
#X connect 29 0 30 0;
#X connect 30 0 31 0;
#X connect 30 0 33 0;
#X connect 31 0 42 0;
#X connect 34 0 32 0;
#X connect 34 0 32 1;
#X connect 35 0 36 0;
#X connect 36 0 34 1;
#X connect 37 0 36 0;
#X connect 38 0 39 0;
#X connect 39 0 40 0;
#X connect 39 0 41 0;
#X connect 40 0 42 0;
#X connect 42 0 34 0;
