#N canvas 339 202 626 457 12;
#X obj 128 61 osc~ 220;
#X obj 85 390 dac~;
#X msg 304 153 \$1 50;
#X obj 304 179 line~;
#X obj 444 121 hsl 128 15 -1 1 0 0 pan empty empty -2 -8 0 10 -262144
-1 -1 7850 1;
#X obj 262 56 r pan;
#X obj 128 85 *~ 0.5;
#X obj 80 209 *~;
#X obj 262 79 * 0.125;
#X obj 262 103 + 0.125;
#X obj 162 161 sig~ 1;
#X obj 162 185 -~;
#X obj 144 251 *~;
#X msg 446 59 0;
#X obj 443 32 loadbang;
#X obj 445 254 *~ 0.25;
#X obj 445 230 phasor~ 2;
#X obj 255 245 osc~;
#X connect 0 0 6 0;
#X connect 2 0 3 0;
#X connect 5 0 8 0;
#X connect 6 0 7 0;
#X connect 6 0 12 0;
#X connect 7 0 1 0;
#X connect 8 0 9 0;
#X connect 9 0 2 0;
#X connect 10 0 11 0;
#X connect 11 0 12 1;
#X connect 12 0 1 1;
#X connect 13 0 4 0;
#X connect 14 0 13 0;
#X connect 15 0 17 0;
#X connect 16 0 15 0;
#X connect 17 0 7 1;
#X connect 17 0 11 1;
