#N canvas 960 94 960 986 12;
#X obj 911 813 dac~;
#X obj 306 694 *~;
#X obj 546 590 sig~ 1;
#X obj 546 614 -~;
#X obj 344 699 *~;
#X obj 663 156 loadbang;
#X msg 664 187 1;
#X obj 522 462 cos~;
#X obj 289 467 *~;
#X obj 520 322 / 500;
#X obj 520 298 random 500;
#X obj 521 428 line~ 0 100;
#X obj 771 513 osc~;
#X obj 289 493 *~;
#X obj 772 540 *~ 0.5;
#X obj 772 465 osc~;
#X obj 665 211 metro 110;
#X obj 771 434 *~ 444;
#X obj 521 347 * 0.5;
#X obj 521 371 - 0.25;
#X msg 521 400 \$1 5;
#X obj 288 441 line~;
#X msg 312 377 1 4;
#X msg 373 397 0 80;
#X obj 312 350 del 5;
#X obj 874 385 line~;
#X msg 874 341 1 10;
#X msg 944 330 0.18 40;
#X msg 1041 350 0.3 90;
#X obj 945 305 del 20;
#X obj 1041 322 del 75;
#X obj 922 262 t b b b;
#X obj 288 290 t b b b;
#X obj 373 371 del 155;
#X msg 288 319 0 5;
#X obj 772 488 *~ 1040;
#X obj 1216 205 table waveform 4099;
#X obj 1356 73 loadbang;
#X obj 917 699 phasor~;
#X obj 916 761 +~ 1;
#X obj 906 643 mtof;
#X obj 912 591 hsl 128 15 0 127 0 0 empty empty empty -2 -8 0 10 -262144
-1 -1 2400 1;
#X obj 916 786 tabread4~ waveform;
#X obj 916 736 *~ 4096;
#X floatatom 906 668 5 0 0 0 - - -;
#X msg 802 85 \; waveform sinesum 4096 0.9 -0.125 0.3 0 0.2 0 0.1 0
0.05 0 0.025 -0.0125 -0.0125 0.0125 -0.0125;
#X obj 1096 585 line~;
#X obj 1124 344 bng 15 250 50 0 empty empty empty 17 7 0 10 -262144
-1 -1;
#X obj 1009 456 del 500;
#X obj 1122 367 t b b b;
#X obj 1101 418 del 5;
#X msg 1009 481 55 1000;
#X msg 1101 445 200 1000;
#X obj 1146 238 tgl 15 0 empty empty empty 17 7 0 10 -262144 -1 -1
0 1;
#X obj 1095 610 wrap~;
#X obj 1146 258 metro 1000;
#X msg 1208 457 0;
#X connect 2 0 3 0;
#X connect 3 0 4 1;
#X connect 5 0 6 0;
#X connect 6 0 16 0;
#X connect 7 0 1 1;
#X connect 7 0 3 1;
#X connect 8 0 13 0;
#X connect 9 0 18 0;
#X connect 10 0 9 0;
#X connect 11 0 7 0;
#X connect 12 0 14 0;
#X connect 13 0 1 0;
#X connect 13 0 4 0;
#X connect 14 0 13 1;
#X connect 15 0 35 0;
#X connect 16 0 10 0;
#X connect 16 0 31 0;
#X connect 16 0 32 0;
#X connect 17 0 15 0;
#X connect 18 0 19 0;
#X connect 19 0 20 0;
#X connect 20 0 11 0;
#X connect 21 0 8 0;
#X connect 21 0 8 1;
#X connect 22 0 21 0;
#X connect 23 0 21 0;
#X connect 24 0 22 0;
#X connect 25 0 17 0;
#X connect 26 0 25 0;
#X connect 27 0 25 0;
#X connect 28 0 25 0;
#X connect 29 0 27 0;
#X connect 30 0 28 0;
#X connect 31 0 26 0;
#X connect 31 1 29 0;
#X connect 31 2 30 0;
#X connect 32 0 34 0;
#X connect 32 1 24 0;
#X connect 32 2 33 0;
#X connect 33 0 23 0;
#X connect 34 0 21 0;
#X connect 35 0 12 0;
#X connect 39 0 42 0;
#X connect 40 0 38 0;
#X connect 40 0 44 0;
#X connect 41 0 40 0;
#X connect 42 0 0 0;
#X connect 42 0 0 1;
#X connect 43 0 39 0;
#X connect 46 0 54 0;
#X connect 47 0 49 0;
#X connect 48 0 51 0;
#X connect 49 0 48 0;
#X connect 49 1 50 0;
#X connect 49 2 56 0;
#X connect 50 0 52 0;
#X connect 51 0 46 0;
#X connect 52 0 46 0;
#X connect 53 0 55 0;
#X connect 54 0 43 0;
#X connect 55 0 47 0;
#X connect 56 0 46 0;
