#N canvas 1382 43 275 329 12;
#X obj 19 214 dac~;
#X obj 18 97 +~ 1;
#X obj 18 45 phasor~ 110;
#X obj 64 149 osc~ 440;
#X obj 74 183 *~ 0.5;
#X obj 17 17 table waveform 515 @hv_table;
#X obj 18 122 tabread4~ waveform;
#X obj 18 183 *~ 0.5;
#X obj 18 73 *~ 512;
#X obj 128 80 r wLen @hv_param;
#X connect 1 0 6 0;
#X connect 2 0 8 0;
#X connect 3 0 4 0;
#X connect 4 0 0 1;
#X connect 6 0 7 0;
#X connect 7 0 0 0;
#X connect 8 0 1 0;
#X connect 9 0 8 1;
