#N canvas 264 192 720 738 12;
#X obj 117 648 dac~;
#X obj 112 526 *~;
#X obj 196 455 sig~ 1;
#X obj 196 479 -~;
#X obj 171 526 *~;
#X obj 139 23 loadbang;
#X msg 140 54 1;
#X obj 330 511 cos~;
#X obj 70 341 *~;
#X obj 470 472 / 500;
#X obj 470 448 random 500;
#X obj 471 599 line~ 0 100;
#X obj 247 380 osc~;
#X obj 68 372 *~;
#X obj 243 410 *~ 0.5;
#X obj 248 332 osc~;
#X obj 141 78 metro 110;
#X obj 281 303 *~ 444;
#X obj 471 497 * 0.5;
#X obj 471 521 - 0.25;
#X msg 471 564 \$1 5;
#X obj 83 270 line~;
#X msg 122 214 1 4;
#X msg 179 225 0 80;
#X obj 121 189 del 5;
#X obj 394 296 line~;
#X msg 398 272 1 10;
#X msg 460 273 0.18 40;
#X msg 524 255 0.3 90;
#X obj 461 248 del 20;
#X obj 527 226 del 75;
#X obj 383 219 t b b b;
#X obj 67 140 t b b b;
#X obj 179 193 del 155;
#X msg 60 192 0 5;
#X obj 248 355 *~ 1040;
#X connect 1 0 0 0;
#X connect 2 0 3 0;
#X connect 3 0 4 1;
#X connect 4 0 0 1;
#X connect 5 0 6 0;
#X connect 6 0 16 0;
#X connect 7 0 1 1;
#X connect 7 0 3 1;
#X connect 8 0 13 0;
#X connect 9 0 18 0;
#X connect 10 0 9 0;
#X connect 11 0 7 0;
#X connect 12 0 14 0;
#X connect 13 0 1 0;
#X connect 13 0 4 0;
#X connect 14 0 13 1;
#X connect 15 0 35 0;
#X connect 16 0 10 0;
#X connect 16 0 31 0;
#X connect 16 0 32 0;
#X connect 17 0 15 0;
#X connect 18 0 19 0;
#X connect 19 0 20 0;
#X connect 20 0 11 0;
#X connect 21 0 8 0;
#X connect 21 0 8 1;
#X connect 22 0 21 0;
#X connect 23 0 21 0;
#X connect 24 0 22 0;
#X connect 25 0 17 0;
#X connect 26 0 25 0;
#X connect 27 0 25 0;
#X connect 28 0 25 0;
#X connect 29 0 27 0;
#X connect 30 0 28 0;
#X connect 31 0 26 0;
#X connect 31 1 29 0;
#X connect 31 2 30 0;
#X connect 32 0 34 0;
#X connect 32 1 24 0;
#X connect 32 2 33 0;
#X connect 33 0 23 0;
#X connect 34 0 21 0;
#X connect 35 0 12 0;
