#N canvas 960 95 960 985 12;
#X obj 288 863 dac~;
#X obj 211 36 loadbang;
#X obj 288 777 +~ 1;
#X obj 288 802 tabread4~ waveform;
#X obj 506 570 line~;
#X obj 419 441 del 500;
#X obj 532 352 t b b b;
#X msg 419 466 55 1000;
#X obj 505 595 wrap~;
#X obj 108 43 bng 15 250 50 0 empty empty empty 17 7 0 10 -262144 -1
-1;
#X obj 289 83 t b b;
#X obj 531 322 metro 1000;
#X msg 511 430 100 500;
#X obj 511 403 del 250;
#X msg 618 442 44 500;
#X msg 383 117 \; waveform sinesum 515 0.9;
#X obj 288 753 *~ 512;
#X obj 212 631 phasor~ 110;
#X obj 285 37 table waveform 515;
#X msg 363 69 \; waveform read waveform.txt;
#X msg 209 220 \; waveform sinesum 515 0.9 -0.125 0.3 0 0.2 0 0.1 0
0.05 0 0.025 -0.0125 -0.0125 0.0125 -0.0125;
#X obj 447 25 loadbang;
#X obj 357 621 osc~ 110;
#X connect 1 0 10 0;
#X connect 2 0 3 0;
#X connect 3 0 0 0;
#X connect 4 0 8 0;
#X connect 5 0 7 0;
#X connect 6 0 5 0;
#X connect 6 1 13 0;
#X connect 6 2 14 0;
#X connect 7 0 4 0;
#X connect 9 0 10 0;
#X connect 10 0 11 0;
#X connect 11 0 6 0;
#X connect 12 0 4 0;
#X connect 13 0 12 0;
#X connect 14 0 4 0;
#X connect 16 0 2 0;
#X connect 17 0 16 0;
#X connect 21 0 19 0;
#X connect 22 0 0 1;
