#N canvas 551 62 632 703 12;
#X obj 57 490 dac~;
#X obj 17 17 table waveform 515 @hv_table;
#X obj 99 139 r waveformLength @hv_param;
#X obj 380 260 r phasorFreq @hv_param;
#X obj 380 285 print;
#X obj 248 313 loadbang;
#X msg 248 337 1;
#X obj 254 391 s bang @hv_param;
#X obj 57 281 phasor~;
#X obj 56 346 *~ 0;
#X obj 57 459 *~ 1;
#X msg 200 318 0;
#X obj 56 398 tabread4~ waveform;
#X obj 56 370 +~ 1;
#X obj 97 327 - 2;
#X obj 180 187 r waveformDur @hv_param;
#X obj 179 218 swap 1;
#X obj 179 242 /;
#X obj 248 359 metro 250;
#X obj 194 551 line~;
#X obj 196 491 * 1000;
#X obj 193 612 tabread~ waveform;
#X obj 194 580 *~;
#X obj 197 455 f;
#X msg 197 522 1 \$1;
#X obj 278 505 t b b;
#X msg 292 536 0;
#X connect 2 0 14 0;
#X connect 2 0 22 1;
#X connect 3 0 4 0;
#X connect 5 0 6 0;
#X connect 6 0 18 0;
#X connect 8 0 9 0;
#X connect 9 0 13 0;
#X connect 10 0 0 0;
#X connect 11 0 8 1;
#X connect 12 0 10 0;
#X connect 13 0 12 0;
#X connect 14 0 9 1;
#X connect 15 0 16 0;
#X connect 15 0 23 1;
#X connect 16 0 17 0;
#X connect 16 1 17 1;
#X connect 17 0 8 0;
#X connect 18 0 7 0;
#X connect 18 0 11 0;
#X connect 18 0 25 0;
#X connect 19 0 22 0;
#X connect 20 0 24 0;
#X connect 21 0 0 1;
#X connect 22 0 21 0;
#X connect 23 0 20 0;
#X connect 24 0 19 0;
#X connect 25 0 23 0;
#X connect 25 1 26 0;
#X connect 26 0 19 0;
