#N canvas 1313 43 349 329 12;
#X obj 19 254 dac~;
#X obj 18 97 +~ 1;
#X obj 18 45 phasor~ 110;
#X obj 64 189 osc~ 440;
#X obj 74 223 *~ 0.5;
#X obj 17 17 table waveform 515 @hv_table;
#X obj 18 162 tabread4~ waveform;
#X obj 18 223 *~ 0.5;
#X obj 18 73 *~ 512;
#X obj 123 132 r waveformLength @hv_param;
#X obj 127 48 r phasorFreq @hv_param;
#X obj 128 74 sig~ 110;
#X obj 197 74 print;
#X obj 196 189 loadbang;
#X msg 196 213 1;
#X obj 196 237 metro 1000;
#X obj 196 261 s bang @hv_param;
#X connect 1 0 6 0;
#X connect 2 0 8 0;
#X connect 3 0 4 0;
#X connect 4 0 0 1;
#X connect 6 0 7 0;
#X connect 7 0 0 0;
#X connect 8 0 1 0;
#X connect 9 0 8 1;
#X connect 10 0 11 0;
#X connect 10 0 12 0;
#X connect 11 0 2 0;
#X connect 13 0 14 0;
#X connect 14 0 15 0;
#X connect 15 0 16 0;
